<svg xmlns="http://www.w3.org/2000/svg" width="369" height="327" viewBox="0 0 369 327" fill="none"><rect width="369" height="327" fill="white"></rect><path d="M174.718 163.907C174.92 206.018 140.995 242.771 95.841 242.748C51.6381 242.724 16.9179 207.328 17.0001 163.728C17.0803 120.007 52.0998 84.834 96.231 85.0006C140.775 85.1692 174.935 121.502 174.718 163.905V163.907ZM138.309 161.048C135.815 161.048 133.319 161.048 130.825 161.048C125.906 161.048 120.988 161.067 116.069 161.033C115.112 161.027 114.735 161.333 114.796 162.309C114.863 163.359 114.809 164.415 114.811 165.469C114.813 166.426 115.304 166.905 116.282 166.907C128.79 166.907 141.298 166.907 153.806 166.907C154.122 166.907 154.439 166.924 154.755 166.907C155.449 166.873 155.697 167.212 155.64 167.877C155.257 172.439 154.624 176.971 153.163 181.314C145.922 202.85 131.303 216.572 109.264 222.14C98.6681 224.817 88.068 224.181 77.6618 220.892C66.7708 217.449 57.6317 211.301 50.2129 202.628C44.9867 196.521 41.1539 189.616 38.7485 181.936C36.5875 175.034 35.6747 167.982 36.0626 160.742C36.3599 155.194 37.3528 149.794 39.1532 144.551C42.7014 134.21 48.6887 125.504 56.9676 118.384C65.8622 110.736 76.1587 106.15 87.7686 104.546C91.0722 104.088 94.3989 103.81 97.7405 104.086C98.666 104.162 99.0012 103.829 98.9527 102.899C98.8894 101.672 98.8958 100.439 98.9506 99.212C98.9906 98.3308 98.647 98.0673 97.789 98.0673C92.685 98.0631 87.6126 98.4088 82.6077 99.4503C71.2929 101.807 61.2663 106.77 52.5636 114.383C44.2572 121.648 38.1308 130.439 34.2453 140.773C30.9207 149.613 29.6115 158.742 30.2186 168.176C30.6635 175.076 32.0781 181.744 34.6627 188.141C40.3634 202.24 49.7934 213.171 62.9233 220.854C74.9402 227.887 87.9605 230.646 101.786 229.476C110.929 228.703 119.565 226.074 127.584 221.571C141.047 214.013 150.823 203.132 156.756 188.866C160.285 180.378 161.807 171.505 161.628 162.319C161.609 161.297 161.352 161.021 160.337 161.025C152.995 161.065 145.652 161.046 138.309 161.046V161.048ZM92.8621 163.898C92.8621 164.811 92.8621 165.724 92.8621 166.637C92.8621 176.752 92.8642 186.867 92.8578 196.983C92.8578 197.737 92.8368 198.342 93.9204 198.338C100.454 198.302 106.985 198.311 113.518 198.332C114.311 198.334 114.568 198.026 114.543 197.269C114.505 196.04 114.475 194.807 114.551 193.582C114.617 192.545 114.21 192.269 113.217 192.279C109.038 192.323 104.858 192.298 100.677 192.298C99.5177 192.298 98.9372 191.721 98.9358 190.567C98.9358 170.898 98.9358 151.23 98.9358 131.56C98.9358 131.244 98.9084 130.926 98.94 130.612C99.0244 129.762 98.6934 129.391 97.8058 129.431C96.6842 129.484 95.5585 129.442 94.4348 129.444C93.3891 129.445 92.8649 129.971 92.8621 131.021C92.8621 141.979 92.8621 152.938 92.8621 163.896V163.898ZM61.4349 138.665C61.4139 143.919 65.4152 147.979 70.6331 148C75.8973 148.021 79.9746 144.033 80.0062 138.834C80.0357 133.521 76.0301 129.454 70.7511 129.442C65.4975 129.429 61.456 133.43 61.4371 138.665H61.4349Z" fill="#C8135C"></path><path d="M331.229 196.045C328.537 199.472 325.279 202.051 321.259 203.379C309.331 207.319 298.271 205.774 288.637 197.373C282.291 191.841 279.057 184.483 277.364 176.396C275.576 167.858 275.448 159.277 277.598 150.807C281.433 135.699 290.979 126.332 306.367 123.334C315.28 121.597 324.143 122.01 332.696 125.377C338.648 127.722 343.695 131.308 347.213 136.764C349.41 140.171 350.317 144.035 350.924 147.986C351.025 148.643 351.185 149.293 351.307 149.948C351.436 150.651 351.185 151.005 350.42 150.994C348.91 150.971 347.399 150.99 345.887 150.99C339.879 150.99 333.87 150.979 327.862 151.003C327.071 151.005 326.681 150.802 326.517 149.946C325.014 142.062 317.456 139.734 311.45 141.701C307.246 143.078 304.764 146.217 303.166 150.138C300.986 155.485 300.569 161.099 300.879 166.799C301.083 170.571 301.619 174.281 303.055 177.806C304.676 181.782 307.09 185.069 311.277 186.631C315.137 188.073 321.997 187.987 325.709 183.393C327.784 180.827 328.741 177.804 329.441 174.659C329.593 173.976 329.127 173.995 328.693 173.993C327.286 173.986 325.882 173.988 324.476 173.988C321.63 173.988 318.784 173.957 315.938 174.005C314.962 174.022 314.563 173.748 314.574 172.705C314.616 167.961 314.61 163.218 314.578 158.474C314.572 157.565 314.877 157.239 315.795 157.241C327.248 157.262 338.705 157.262 350.158 157.241C351.067 157.241 351.383 157.538 351.381 158.461C351.36 173.044 351.36 187.624 351.381 202.207C351.381 203.115 351.09 203.449 350.171 203.444C344.268 203.419 338.365 203.417 332.462 203.444C331.484 203.449 331.185 203.082 331.21 202.135C331.267 200.107 331.227 198.075 331.227 196.045H331.229Z" fill="black"></path><path d="M214.013 163.877C214.013 151.232 214.013 138.587 214.013 125.94C214.013 124.378 214.017 124.373 215.605 124.373C222.385 124.373 229.162 124.371 235.942 124.373C237.408 124.373 237.469 124.437 237.469 125.934C237.469 144.515 237.469 163.097 237.469 181.679C237.469 182.836 238.049 183.414 239.208 183.414C249.57 183.414 259.932 183.414 270.296 183.414C271.464 183.414 272.048 183.999 272.05 185.17C272.05 190.755 272.052 196.339 272.05 201.926C272.05 203.341 271.968 203.427 270.566 203.427C252.195 203.429 233.824 203.429 215.453 203.427C214.042 203.427 214.011 203.387 214.011 201.918C214.011 189.237 214.011 176.556 214.011 163.875L214.013 163.877Z" fill="black"></path></svg>