<svg xmlns="http://www.w3.org/2000/svg" width="369" height="327" viewBox="0 0 369 327" fill="none"><rect width="369" height="327" fill="white"></rect><path d="M149.544 144.624C148.885 148.15 148.224 151.676 147.566 155.202C146.163 162.725 144.762 170.245 143.361 177.767C142.874 180.382 142.364 182.993 141.929 185.616C141.789 186.466 141.504 186.815 140.568 186.798C137.222 186.736 133.874 186.756 130.525 186.789C129.803 186.795 129.513 186.541 129.384 185.843C127.223 174.14 125.043 162.439 122.865 150.739C122.496 148.754 122.127 146.769 121.668 144.793C121.668 145.97 121.692 147.149 121.664 148.326C121.477 156.39 121.578 164.457 121.475 172.522C121.418 176.937 121.356 181.355 121.37 185.77C121.37 186.49 121.163 186.795 120.384 186.787C117.064 186.752 113.742 186.752 110.422 186.787C109.608 186.795 109.395 186.49 109.41 185.724C109.559 178.705 109.676 171.683 109.814 164.661C109.906 160 110.012 155.339 110.126 150.677C110.209 147.278 110.326 143.88 110.394 140.481C110.407 139.805 110.646 139.572 111.316 139.574C117.189 139.592 123.06 139.592 128.934 139.574C129.583 139.574 129.843 139.807 129.944 140.45C131.63 151.009 133.338 161.565 135.042 172.124C135.206 173.152 135.38 174.177 135.696 175.224C135.885 174.129 136.087 173.035 136.265 171.938C137.119 166.659 137.966 161.381 138.814 156.101C139.628 151.037 140.445 145.976 141.249 140.913C141.46 139.587 141.442 139.583 142.77 139.583C148.505 139.583 154.24 139.592 159.975 139.567C160.645 139.565 160.882 139.747 160.893 140.439C160.985 146.005 161.11 151.573 161.231 157.139C161.339 162.185 161.451 167.23 161.565 172.274C161.666 176.687 161.778 181.102 161.872 185.515C161.899 186.767 161.881 186.769 160.597 186.769C157.387 186.769 154.174 186.749 150.964 186.784C150.172 186.793 149.941 186.525 149.926 185.744C149.768 177.651 149.858 169.558 149.748 161.464C149.673 155.951 149.643 150.438 149.619 144.923C149.619 144.824 149.619 144.725 149.619 144.626C149.59 144.624 149.564 144.622 149.535 144.62L149.544 144.624Z" fill="#1428A0"></path><path d="M274.993 148.135C275.266 151.753 275.066 155.288 275.231 158.817C275.356 161.504 275.294 164.192 275.343 166.879C275.452 172.884 275.562 178.889 275.665 184.894C275.689 186.28 275.674 186.28 274.271 186.28C271.197 186.28 268.126 186.28 265.052 186.28C263.949 186.28 263.921 186.255 263.919 185.197C263.919 170.326 263.923 155.453 263.903 140.582C263.903 139.791 264.127 139.561 264.929 139.568C270.086 139.605 275.246 139.607 280.404 139.568C281.291 139.561 281.69 139.813 281.947 140.703C285.317 152.32 288.729 163.924 292.13 175.532C292.176 175.69 292.231 175.844 292.286 176.017C292.552 175.828 292.422 175.571 292.42 175.365C292.357 169.606 292.339 163.845 292.181 158.085C292.091 154.821 292.17 151.556 292.027 148.295C291.915 145.744 291.933 143.195 291.895 140.646C291.88 139.627 291.931 139.587 292.963 139.587C296.201 139.583 299.437 139.603 302.676 139.574C303.407 139.568 303.684 139.783 303.684 140.556C303.666 155.481 303.666 170.407 303.682 185.335C303.682 186.045 303.462 186.295 302.74 186.293C297.692 186.269 292.642 186.269 287.594 186.293C286.903 186.297 286.652 186.005 286.468 185.393C282.795 173.266 279.101 161.144 275.406 149.022C275.323 148.747 275.316 148.431 274.991 148.135H274.993Z" fill="#1428A0"></path><path d="M251.117 157.959C251.117 163.474 251.132 168.99 251.11 174.503C251.099 176.824 250.785 179.107 249.736 181.217C248.315 184.069 246.014 185.962 243.019 186.926C237.346 188.75 231.613 188.792 225.953 186.93C221.03 185.312 218.268 181.443 217.938 176.264C217.84 174.727 217.829 173.194 217.829 171.659C217.824 161.397 217.827 151.137 217.829 140.875C217.829 140.017 218.25 139.587 219.093 139.586C222.332 139.586 225.568 139.583 228.807 139.586C229.894 139.586 229.907 139.599 229.907 140.692C229.907 151.804 229.907 162.916 229.907 174.029C229.907 174.358 229.896 174.687 229.918 175.017C230.036 176.817 230.579 178.442 232.403 179.129C234.166 179.792 235.967 179.788 237.545 178.519C238.777 177.528 239.012 176.117 239.023 174.661C239.047 171.477 239.032 168.296 239.032 165.112C239.032 157.045 239.032 148.979 239.032 140.912C239.032 140.028 239.463 139.585 240.325 139.583C243.619 139.583 246.91 139.605 250.203 139.564C250.948 139.555 251.139 139.801 251.134 140.506C251.112 146.322 251.123 152.14 251.123 157.957L251.117 157.959Z" fill="#1428A0"></path><path d="M327.842 163.199C327.842 166.848 327.866 170.497 327.831 174.146C327.814 175.969 328.211 177.582 329.965 178.445C331.821 179.359 333.737 179.352 335.564 178.309C336.974 177.503 337.452 176.136 337.485 174.614C337.531 172.421 337.49 170.225 337.505 168.029C337.509 167.498 337.292 167.289 336.772 167.296C335.702 167.311 334.631 167.272 333.562 167.305C332.841 167.327 332.596 167.024 332.607 166.325C332.635 164.569 332.631 162.812 332.609 161.058C332.602 160.43 332.835 160.184 333.48 160.186C338.502 160.204 343.523 160.206 348.545 160.182C349.293 160.178 349.467 160.483 349.462 161.166C349.438 165.528 349.48 169.891 349.436 174.254C349.366 180.83 346.301 184.98 339.975 186.756C334.591 188.266 329.162 188.192 323.875 186.249C319.712 184.718 317.035 181.774 316.221 177.323C315.964 175.923 315.812 174.5 315.812 173.07C315.808 166.486 315.779 159.899 315.828 153.314C315.843 151.206 316.045 149.096 316.71 147.065C317.801 143.737 319.971 141.313 323.189 140.031C329.238 137.62 335.428 137.591 341.536 139.736C346.67 141.539 349.072 145.498 349.403 150.809C349.469 151.847 349.399 152.895 349.434 153.936C349.456 154.583 349.184 154.803 348.556 154.801C345.126 154.785 341.696 154.783 338.267 154.801C337.602 154.805 337.338 154.577 337.347 153.892C337.36 152.715 337.441 151.534 337.22 150.361C336.947 148.932 336.185 147.895 334.829 147.344C333.39 146.76 331.922 146.765 330.49 147.316C328.595 148.047 327.904 149.63 327.877 151.505C327.827 155.4 327.862 159.297 327.862 163.192C327.857 163.192 327.853 163.192 327.846 163.192L327.842 163.199Z" fill="#1428A0"></path><path d="M26.426 171.204C28.1276 171.204 29.8293 171.204 31.5309 171.204C32.7758 171.204 32.7604 171.207 32.7846 172.416C32.8087 173.732 32.6924 175.049 32.879 176.362C33.1754 178.452 34.4423 179.704 36.5633 179.932C37.2439 180.004 37.9377 180.018 38.6162 179.895C41.543 179.359 43.0689 175.938 41.6396 173.104C40.8294 171.496 39.4198 170.48 37.9685 169.527C35.0988 167.641 31.9766 166.19 29.0498 164.402C26.7246 162.982 24.5114 161.429 22.7483 159.302C20.735 156.873 20.1531 154.015 20.2563 150.985C20.3353 148.666 20.7657 146.398 22.0084 144.374C23.7386 141.552 26.3228 139.857 29.4582 139.058C35.1339 137.611 40.8206 137.508 46.3646 139.631C50.6614 141.278 52.9844 144.85 53.0327 149.468C53.0437 150.537 53.0173 151.608 53.0415 152.678C53.0547 153.242 52.8197 153.47 52.2642 153.468C48.8061 153.459 45.3502 153.461 41.8921 153.464C41.3454 153.464 41.0929 153.222 41.1104 152.662C41.1302 152.004 41.1148 151.345 41.1104 150.686C41.1016 147.573 39.0465 145.827 35.9529 146.306C34.4225 146.543 33.2281 147.263 32.7978 148.811C32.3411 150.456 32.352 152.076 33.6343 153.435C35.1712 155.062 37.1341 156.063 39.0597 157.113C41.925 158.676 44.8628 160.108 47.5612 161.965C49.0608 162.997 50.4441 164.159 51.6165 165.555C53.0898 167.309 53.9175 169.327 54.0866 171.624C54.293 174.46 54.2645 177.284 53.3884 180.015C52.2928 183.427 49.9566 185.797 46.6456 186.991C40.0236 189.38 33.3335 189.443 26.8344 186.591C22.4651 184.675 20.3485 181.012 20.0433 176.305C19.9511 174.884 20.0389 173.453 20.0126 172.026C20.0016 171.424 20.23 171.193 20.8316 171.2C22.6979 171.22 24.5641 171.207 26.4282 171.207L26.426 171.204Z" fill="#1428A0"></path><path d="M80.9633 144.408C80.7152 146.026 80.4627 147.642 80.2168 149.261C79.0684 156.822 77.9157 164.384 76.774 171.948C76.0824 176.53 75.3951 181.111 74.7387 185.697C74.6245 186.49 74.3369 186.804 73.485 186.793C69.8907 186.747 66.2965 186.775 62.7022 186.771C61.6856 186.771 61.6461 186.731 61.8261 185.752C63.2226 178.175 64.6278 170.598 66.0286 163.021C67.3943 155.632 68.7599 148.244 70.119 140.856C70.3518 139.589 70.3386 139.587 71.6384 139.585C78.0036 139.58 84.3709 139.598 90.736 139.554C91.5901 139.547 91.5836 140.068 91.6802 140.586C92.5101 145.034 93.3291 149.482 94.1502 153.933C95.4479 160.972 96.7433 168.009 98.0409 175.048C98.6974 178.607 99.3561 182.167 100.013 185.726C100.19 186.69 100.129 186.769 99.1409 186.771C95.5181 186.775 91.8975 186.764 88.2747 186.78C87.6731 186.782 87.3174 186.663 87.2186 185.963C86.5094 180.968 85.7629 175.979 85.0318 170.989C83.7781 162.445 82.5244 153.9 81.2707 145.357C81.2246 145.041 81.1565 144.729 81.0972 144.415C81.0533 144.415 81.0094 144.411 80.9655 144.408H80.9633Z" fill="#1428A0"></path><path d="M179.557 171.075C181.313 171.075 183.067 171.071 184.824 171.075C185.891 171.077 185.913 171.103 185.917 172.199C185.922 173.352 185.904 174.504 185.924 175.655C185.961 177.859 187.136 179.251 189.296 179.682C190.282 179.877 191.268 179.862 192.232 179.598C193.339 179.298 194.226 178.696 194.667 177.574C195.295 175.971 195.539 173.367 193.659 171.536C191.942 169.865 189.9 168.701 187.841 167.551C184.85 165.878 181.774 164.343 179.036 162.251C177.346 160.957 175.719 159.548 174.845 157.576C172.629 152.581 172.943 147.733 176.197 143.263C177.664 141.247 179.844 140.105 182.204 139.423C187.465 137.899 192.779 137.809 198.024 139.388C203.315 140.979 205.862 144.528 205.985 150.056C206.005 150.961 205.979 151.868 205.988 152.772C205.992 153.286 205.775 153.514 205.245 153.512C201.79 153.501 198.331 153.501 194.875 153.512C194.289 153.514 194.109 153.238 194.116 152.704C194.127 151.854 194.138 151.002 194.098 150.153C193.986 147.77 192.329 146.376 189.696 146.418C187.296 146.457 185.821 147.968 185.704 150.306C185.619 152.045 186.317 153.301 187.623 154.349C189.415 155.785 191.446 156.814 193.453 157.886C196.285 159.399 199.137 160.874 201.695 162.839C204.459 164.964 206.543 167.518 206.949 171.145C207.182 173.229 207.125 175.297 206.864 177.376C206.594 179.524 205.88 181.469 204.549 183.186C203.012 185.171 200.942 186.381 198.621 187.164C195.086 188.357 191.439 188.581 187.735 188.3C185.252 188.111 182.841 187.65 180.556 186.651C176.32 184.8 173.964 181.535 173.356 176.975C173.13 175.28 173.242 173.578 173.205 171.879C173.191 171.27 173.459 171.057 174.048 171.064C175.885 171.084 177.723 171.071 179.563 171.071L179.557 171.075Z" fill="#1428A0"></path></svg>