<svg xmlns="http://www.w3.org/2000/svg" width="369" height="327" viewBox="0 0 369 327" fill="none"><rect width="369" height="327" fill="white"></rect><path d="M81.3716 138.002C81.0978 141.844 80.8361 145.687 80.5486 149.528C80.258 153.412 79.9401 157.294 79.6343 161.176C79.1551 167.272 78.6759 173.367 78.1983 179.461C78.002 181.967 77.7708 184.471 77.643 186.979C77.5913 187.973 77.2886 188.399 76.2298 188.388C71.809 188.349 67.3883 188.35 62.9676 188.388C61.9149 188.397 61.53 188.014 61.6152 186.981C61.9362 183.1 62.2207 179.215 62.5234 175.333C62.7257 172.744 62.9174 170.155 63.1501 167.568C63.2445 166.517 62.82 166.17 61.7825 166.175C55.2138 166.204 48.6451 166.202 42.0779 166.175C41.1408 166.172 40.7164 166.456 40.6464 167.438C40.3695 171.321 40.0227 175.202 39.7139 179.084C39.5085 181.673 39.3077 184.262 39.1419 186.853C39.0704 187.988 38.5912 188.415 37.3986 188.397C32.6006 188.323 27.7995 188.344 23 188.33C23 187.407 23 186.485 23 185.562C23.0608 185.362 23.1613 185.166 23.1765 184.962C23.5309 180.455 23.8808 175.946 24.2231 171.437C24.5897 166.593 24.9381 161.75 25.3108 156.908C25.796 150.605 26.2965 144.303 26.7894 138H40.435C41.8923 138.643 42.7183 139.725 42.5997 141.344C42.2848 145.602 41.9699 149.861 41.5576 154.11C41.4451 155.274 41.7949 155.57 42.8963 155.564C49.4194 155.531 55.9425 155.52 62.4656 155.572C63.748 155.583 64.0903 155.108 64.1755 153.895C64.5436 148.592 65.0167 143.298 65.4518 138C70.7579 138 76.0655 138 81.3716 138V138.002Z" fill="#009999"></path><path d="M102.345 138.001C103.836 138.666 104.25 139.892 104.12 141.397C103.974 143.102 103.789 144.806 103.693 146.513C103.643 147.401 103.282 147.795 102.386 147.792C97.9792 147.78 93.5706 147.778 89.1636 147.792C88.1428 147.795 87.8736 147.295 87.9649 146.361C88.2341 143.577 88.4577 140.788 88.6996 138.001C93.2481 138.001 97.7966 138.001 102.345 138.001Z" fill="#009999"></path><path d="M240.811 188.359C238.832 188.359 236.851 188.33 234.874 188.37C233.853 188.391 233.47 188.09 233.558 186.978C233.912 182.51 234.182 178.036 234.457 173.562C234.658 170.3 234.887 167.039 234.977 163.773C235.064 160.625 233.64 159.221 230.503 159.153C227.767 159.094 225.034 159.128 222.305 159.428C221.359 159.533 220.912 159.848 220.852 160.887C220.379 169.293 219.851 177.697 219.34 186.102C219.25 187.595 218.474 188.343 217.011 188.345C213.348 188.345 209.684 188.315 206.02 188.364C204.942 188.377 204.53 188.091 204.612 186.937C205.065 180.545 205.461 174.148 205.862 167.751C206.145 163.236 206.439 158.719 206.656 154.201C206.706 153.155 207.078 152.689 208.115 152.593C216.41 151.837 224.692 150.864 233.044 151.083C236.028 151.162 239.015 151.349 241.938 152.038C247.737 153.407 250.053 157.277 249.776 163.234C249.563 167.838 249.219 172.433 248.936 177.034C248.737 180.252 248.516 183.471 248.355 186.693C248.293 187.935 247.818 188.46 246.495 188.385C244.605 188.279 242.705 188.358 240.811 188.358V188.359Z" fill="#009999"></path><path d="M184.117 173.021C179.318 173.021 174.518 173.016 169.719 173.024C168.345 173.025 168.22 173.168 168.62 174.478C169.596 177.666 172.101 179.217 175.051 180.151C178.335 181.191 181.723 181.372 185.162 181.136C189.323 180.852 193.458 180.424 197.547 179.6C198.339 179.44 198.647 179.688 198.505 180.523C198.181 182.423 197.891 184.329 197.611 186.236C197.5 186.992 197.007 187.246 196.34 187.419C193.727 188.099 191.068 188.56 188.387 188.79C182.382 189.304 176.371 189.452 170.397 188.367C167.779 187.892 165.246 187.153 162.823 186.026C154.777 182.28 152.587 174.796 154.029 167.883C155.252 162.022 158.719 157.607 163.851 154.781C172.81 149.847 182.172 149.318 191.451 153.848C199.193 157.629 201.274 164.903 200.139 172.103C199.991 173.043 199.339 173.031 198.641 173.031C193.798 173.028 188.958 173.03 184.116 173.03V173.019L184.117 173.021ZM178.291 165.894C180.979 165.894 183.669 165.881 186.357 165.901C187.157 165.907 187.499 165.649 187.394 164.785C187.021 161.741 185.135 159.509 182.159 158.704C180.392 158.225 178.598 158.146 176.796 158.452C173.186 159.063 170.66 161.023 169.373 164.471C168.926 165.67 169.078 165.884 170.352 165.891C172.999 165.906 175.644 165.895 178.291 165.894Z" fill="#009999"></path><path d="M330.423 173.019C325.665 173.019 320.905 173.016 316.146 173.021C314.619 173.022 314.418 173.296 314.912 174.708C315.647 176.81 317.159 178.229 319.087 179.221C322.808 181.137 326.828 181.366 330.902 181.159C335.235 180.939 339.541 180.478 343.795 179.599C344.645 179.422 344.864 179.743 344.736 180.52C344.423 182.422 344.117 184.327 343.833 186.233C343.711 187.05 343.159 187.285 342.453 187.462C338.846 188.364 335.171 188.872 331.474 189.042C326.046 189.293 320.611 189.309 315.259 188.104C311.479 187.252 307.869 185.965 304.939 183.344C300.205 179.107 299.11 173.685 300.322 167.727C301.396 162.45 304.385 158.252 308.942 155.493C318.411 149.759 328.336 149.06 338.26 154.22C343.813 157.107 346.589 161.987 346.49 168.334C346.472 169.464 346.436 170.596 346.381 171.725C346.334 172.695 345.833 173.059 344.825 173.05C340.024 173.007 335.223 173.03 330.422 173.03V173.018L330.423 173.019ZM324.426 165.895C327.163 165.895 329.9 165.882 332.635 165.904C333.386 165.91 333.692 165.7 333.593 164.879C333.253 162.056 331.899 159.964 329.185 158.963C326.535 157.985 323.816 158.021 321.143 158.932C318.469 159.844 316.665 161.672 315.681 164.31C315.135 165.774 315.206 165.894 316.723 165.895C319.291 165.9 321.858 165.895 324.426 165.895Z" fill="#009999"></path><path d="M128.01 188.631C121.371 188.672 115.334 188.184 109.305 187.57C107.692 187.405 107.546 187.226 107.654 185.586C107.773 183.789 107.954 181.996 108.054 180.199C108.103 179.34 108.391 179.034 109.306 179.183C113.251 179.826 117.215 180.327 121.204 180.627C124.19 180.85 127.181 180.884 130.163 180.686C131.165 180.619 132.514 180.572 132.756 179.323C133.01 178.001 131.698 177.631 130.767 177.243C126.495 175.462 122.187 173.769 117.914 171.991C115.297 170.901 112.831 169.541 110.822 167.492C107.015 163.61 107.524 157.986 111.976 154.835C114.978 152.712 118.437 151.801 122.012 151.338C130.817 150.199 139.562 150.851 148.276 152.327C149.301 152.5 149.706 152.913 149.527 154.019C149.268 155.628 149.152 157.265 149.046 158.894C148.971 160.032 148.541 160.361 147.369 160.132C141.361 158.958 135.289 158.441 129.163 158.671C128.106 158.71 127.067 158.855 126.054 159.153C125.524 159.309 124.989 159.512 124.898 160.166C124.806 160.825 125.149 161.287 125.654 161.654C126.58 162.326 127.621 162.781 128.673 163.214C133.728 165.297 138.869 167.191 143.653 169.879C145.088 170.685 146.428 171.616 147.588 172.801C151.223 176.513 150.739 181.892 146.481 184.904C143.682 186.883 140.445 187.598 137.141 188.119C133.926 188.624 130.689 188.686 128.015 188.631H128.01Z" fill="#009999"></path><path d="M274.683 188.625C268.127 188.449 261.575 188.161 255.055 187.378C254.168 187.271 253.918 186.883 253.993 186.059C254.162 184.183 254.344 182.304 254.396 180.423C254.428 179.247 254.784 178.924 255.996 179.117C262.147 180.094 268.321 180.864 274.572 180.751C275.757 180.73 276.923 180.593 278.057 180.254C278.591 180.094 279.101 179.86 279.171 179.201C279.236 178.582 278.902 178.164 278.421 177.846C277.076 176.957 275.553 176.449 274.072 175.853C269.625 174.065 265.087 172.488 260.883 170.15C259.176 169.2 257.65 168.012 256.436 166.484C253.453 162.726 254.273 157.711 258.313 154.794C261.598 152.424 265.413 151.502 269.324 151.119C277.784 150.29 286.208 150.757 294.584 152.223C295.743 152.426 296.038 152.943 295.908 154.005C295.702 155.666 295.552 157.335 295.418 159.004C295.346 159.909 294.99 160.266 294.035 160.071C289.409 159.13 284.717 158.715 280.012 158.474C277.571 158.349 275.134 158.509 272.738 159.017C272.102 159.153 271.347 159.309 271.232 160.144C271.121 160.942 271.721 161.345 272.286 161.721C274.087 162.922 276.15 163.569 278.121 164.401C282.267 166.149 286.465 167.784 290.363 170.061C291.854 170.933 293.302 171.887 294.405 173.239C297.613 177.173 296.907 182.055 292.73 184.944C289.954 186.864 286.759 187.607 283.494 188.074C280.578 188.491 277.642 188.733 274.686 188.624L274.683 188.625Z" fill="#009999"></path><path d="M95.5254 151.577C97.7129 151.577 99.9004 151.6 102.086 151.567C103.09 151.551 103.375 151.927 103.29 152.934C102.777 159.021 102.33 165.113 101.855 171.203C101.435 176.583 101.003 181.964 100.591 187.345C100.535 188.075 100.199 188.376 99.4699 188.373C94.9686 188.361 90.4687 188.356 85.9674 188.376C85.0394 188.381 84.8128 187.909 84.8721 187.11C85.079 184.357 85.2676 181.602 85.4791 178.849C85.7772 174.969 86.0952 171.092 86.3918 167.213C86.7554 162.457 87.1114 157.7 87.4552 152.943C87.5251 151.98 87.9313 151.536 88.9627 151.562C91.1487 151.615 93.3363 151.579 95.5238 151.579L95.5254 151.577Z" fill="#009999"></path></svg>