<svg xmlns="http://www.w3.org/2000/svg" width="369" height="327" viewBox="0 0 369 327" fill="none"><rect width="369" height="327" fill="white"></rect><path d="M183.808 258.465C134.398 258.465 84.989 258.472 35.5772 258.462C25.1356 258.462 25.0457 258.413 25.038 248.339C25.0097 205.846 24.9608 163.355 25.0559 120.861C25.1022 99.9856 32.8942 83.3993 52.2765 73.5771C58.1 70.6268 64.2395 69.1054 70.8159 69.108C159.013 69.1363 247.21 69.1774 335.405 69.0001C341.996 68.9872 343.944 71.4055 343.929 77.6607C343.788 134.975 343.78 192.292 343.942 249.606C343.96 256.206 341.93 258.634 334.998 258.598C284.602 258.344 234.204 258.462 183.805 258.462L183.808 258.465ZM191.034 196.9C191.612 196.866 194.357 196.936 197.022 196.499C208.674 194.587 218.031 189.442 222.397 177.684C223.163 175.623 224.07 173.377 221.83 171.591C218.576 168.998 206.312 171.288 203.871 174.894C199.371 181.537 191.8 184.222 183.8 182.015C176.103 179.889 170.621 172.321 170.403 163.514C170.184 154.725 175.314 147.054 183.065 144.579C191.268 141.96 198.636 144.216 203.395 150.806C206.323 154.858 219.177 157.896 221.683 154.463C225.561 149.153 220.925 144.9 218.088 140.806C216.852 139.025 215.037 137.565 213.269 136.25C200.885 127.037 177.581 126.772 164.844 135.51C159.116 139.439 155.042 144.664 153.087 151.214C146.318 173.894 157.204 197.252 191.034 196.9ZM110.002 132.464C100.116 132.464 90.2317 132.444 80.3452 132.48C77.8858 132.487 75.4366 132.397 74.2391 135.432C71.001 143.641 74.7093 149.439 83.3957 149.505C85.8679 149.523 88.3479 149.654 90.8073 149.5C96.1194 149.161 98.4503 151.335 98.2498 156.85C97.962 164.748 98.1856 172.665 98.1881 180.573C98.1898 190.09 102.948 194.641 112.464 194.225C112.957 194.204 113.453 194.178 113.947 194.189C118.028 194.291 119.698 192.205 119.65 188.239C119.57 181.814 119.657 175.387 119.657 168.962C119.662 150.325 119.652 150.055 137.968 149.639C144.639 149.487 144.873 145.941 144.796 141.04C144.724 136.36 145.138 132.074 138.171 132.361C128.796 132.749 119.393 132.457 110.002 132.467V132.464ZM237.398 162.725C237.398 171.103 237.485 179.481 237.362 187.856C237.298 192.13 238.958 194.248 243.409 194.225C257.945 194.15 272.483 194.099 287.018 194.245C293.51 194.309 292.924 189.989 293.075 185.692C293.237 181.126 292.443 178.044 286.753 178.278C279.375 178.581 271.969 178.157 264.583 178.384C259.528 178.538 257.441 176.515 257.544 171.45C257.724 162.584 257.575 153.71 257.569 144.841C257.564 136.436 253.434 132.306 245.18 132.451C244.686 132.459 244.19 132.503 243.702 132.456C238.781 131.981 237.221 134.471 237.331 139.077C237.521 146.956 237.383 154.846 237.398 162.73V162.725Z" fill="#ED1C24"></path></svg>